<?xml version="1.0" encoding="UTF-8" standalone="no"?>
<!DOCTYPE svg PUBLIC "-//W3C//DTD SVG 1.1//EN"
 "http://www.w3.org/Graphics/SVG/1.1/DTD/svg11.dtd">
<!-- Generated by graphviz version 4.0.0 (0)
 -->
<!-- Pages: 1 -->
<svg width="864pt" height="121pt"
 viewBox="0.00 0.00 864.00 121.02" xmlns="http://www.w3.org/2000/svg" xmlns:xlink="http://www.w3.org/1999/xlink">
<g id="graph0" class="graph" transform="scale(0.16593 0.16593) rotate(0) translate(4 725.37)">
<polygon fill="white" stroke="transparent" points="-4,4 -4,-725.37 5203,-725.37 5203,4 -4,4"/>
<text text-anchor="middle" x="2599.5" y="-699.37" font-family="Times New Roman,serif" font-size="20.00">Synergy Trees Visualization for Marfan syndrome in Cohort FBN1 from PPStores trees)</text>
<g id="clust1" class="cluster">
<title>cluster_0</title>
<polygon fill="none" stroke="black" stroke-dasharray="5,2" points="8,-377.09 8,-681.37 464,-681.37 464,-377.09 8,-377.09"/>
<text text-anchor="middle" x="236" y="-662.97" font-family="Times New Roman,serif" font-size="16.00">Tree 1</text>
</g>
<g id="clust9" class="cluster">
<title>cluster_8</title>
<polygon fill="none" stroke="black" stroke-dasharray="5,2" points="4527,-8 4527,-681.37 5191,-681.37 5191,-8 4527,-8"/>
<text text-anchor="middle" x="4859" y="-662.97" font-family="Times New Roman,serif" font-size="16.00">Tree 9</text>
</g>
<g id="clust5" class="cluster">
<title>cluster_4</title>
<polygon fill="none" stroke="black" stroke-dasharray="5,2" points="2116,-186.5 2116,-681.37 2795,-681.37 2795,-186.5 2116,-186.5"/>
<text text-anchor="middle" x="2455.5" y="-662.97" font-family="Times New Roman,serif" font-size="16.00">Tree 5</text>
</g>
<g id="clust6" class="cluster">
<title>cluster_5</title>
<polygon fill="none" stroke="black" stroke-dasharray="5,2" points="2846,-8 2846,-681.37 3274,-681.37 3274,-8 2846,-8"/>
<text text-anchor="middle" x="3060" y="-662.97" font-family="Times New Roman,serif" font-size="16.00">Tree 6</text>
</g>
<g id="clust7" class="cluster">
<title>cluster_6</title>
<polygon fill="none" stroke="black" stroke-dasharray="5,2" points="3328,-8 3328,-681.37 3765,-681.37 3765,-8 3328,-8"/>
<text text-anchor="middle" x="3546.5" y="-662.97" font-family="Times New Roman,serif" font-size="16.00">Tree 7</text>
</g>
<g id="clust3" class="cluster">
<title>cluster_2</title>
<polygon fill="none" stroke="black" stroke-dasharray="5,2" points="994,-186.5 994,-681.37 1430,-681.37 1430,-186.5 994,-186.5"/>
<text text-anchor="middle" x="1212" y="-662.97" font-family="Times New Roman,serif" font-size="16.00">Tree 3</text>
</g>
<g id="clust4" class="cluster">
<title>cluster_3</title>
<polygon fill="none" stroke="black" stroke-dasharray="5,2" points="1486,-377.09 1486,-681.37 2108,-681.37 2108,-377.09 1486,-377.09"/>
<text text-anchor="middle" x="1797" y="-662.97" font-family="Times New Roman,serif" font-size="16.00">Tree 4</text>
</g>
<g id="clust2" class="cluster">
<title>cluster_1</title>
<polygon fill="none" stroke="black" stroke-dasharray="5,2" points="520,-377.09 520,-681.37 939,-681.37 939,-377.09 520,-377.09"/>
<text text-anchor="middle" x="729.5" y="-662.97" font-family="Times New Roman,serif" font-size="16.00">Tree 2</text>
</g>
<g id="clust8" class="cluster">
<title>cluster_7</title>
<polygon fill="none" stroke="black" stroke-dasharray="5,2" points="3807,-8 3807,-681.37 4471,-681.37 4471,-8 3807,-8"/>
<text text-anchor="middle" x="4139" y="-662.97" font-family="Times New Roman,serif" font-size="16.00">Tree 8</text>
</g>
<!-- Tree0&#45;2&#45;4 -->
<g id="node1" class="node">
<title>Tree0&#45;2&#45;4</title>
<ellipse fill="none" stroke="black" cx="245" cy="-604.88" rx="86.81" ry="41.09"/>
<text text-anchor="middle" x="245" y="-617.48" font-family="Times New Roman,serif" font-size="14.00">Internal: (2, 4)</text>
<text text-anchor="middle" x="245" y="-600.68" font-family="Times New Roman,serif" font-size="14.00">MI: 0.037607</text>
<text text-anchor="middle" x="245" y="-583.88" font-family="Times New Roman,serif" font-size="14.00">Synergy: 0.001220</text>
</g>
<!-- Tree0&#45;2&#45;leaf -->
<g id="node2" class="node">
<title>Tree0&#45;2&#45;leaf</title>
<polygon fill="none" stroke="black" points="228.33,-443.69 15.67,-443.69 15.67,-384.88 228.33,-384.88 228.33,-443.69"/>
<text text-anchor="middle" x="122" y="-426.89" font-family="Times New Roman,serif" font-size="14.00">Leaf: (2,)</text>
<text text-anchor="middle" x="122" y="-410.09" font-family="Times New Roman,serif" font-size="14.00">MI: 0.029828</text>
<text text-anchor="middle" x="122" y="-393.29" font-family="Times New Roman,serif" font-size="14.00">Label: Disproportionate tall stature</text>
</g>
<!-- Tree0&#45;2&#45;4&#45;&gt;Tree0&#45;2&#45;leaf -->
<g id="edge1" class="edge">
<title>Tree0&#45;2&#45;4&#45;&gt;Tree0&#45;2&#45;leaf</title>
<path fill="none" stroke="black" d="M219.81,-565.26C198.29,-532.26 167.53,-485.09 146.27,-452.5"/>
<polygon fill="black" stroke="black" points="148.94,-450.18 140.54,-443.72 143.08,-454.01 148.94,-450.18"/>
</g>
<!-- Tree0&#45;4&#45;leaf -->
<g id="node3" class="node">
<title>Tree0&#45;4&#45;leaf</title>
<polygon fill="none" stroke="black" points="455.95,-443.69 300.05,-443.69 300.05,-384.88 455.95,-384.88 455.95,-443.69"/>
<text text-anchor="middle" x="378" y="-426.89" font-family="Times New Roman,serif" font-size="14.00">Leaf: (4,)</text>
<text text-anchor="middle" x="378" y="-410.09" font-family="Times New Roman,serif" font-size="14.00">MI: 0.006559</text>
<text text-anchor="middle" x="378" y="-393.29" font-family="Times New Roman,serif" font-size="14.00">Label: Pectus excavatum</text>
</g>
<!-- Tree0&#45;2&#45;4&#45;&gt;Tree0&#45;4&#45;leaf -->
<g id="edge2" class="edge">
<title>Tree0&#45;2&#45;4&#45;&gt;Tree0&#45;4&#45;leaf</title>
<path fill="none" stroke="black" d="M272.24,-565.26C295.61,-532.12 329.06,-484.68 352.05,-452.08"/>
<polygon fill="black" stroke="black" points="355.04,-453.91 357.95,-443.72 349.32,-449.87 355.04,-453.91"/>
</g>
<!-- Tree1&#45;4&#45;6 -->
<g id="node4" class="node">
<title>Tree1&#45;4&#45;6</title>
<ellipse fill="none" stroke="black" cx="729" cy="-604.88" rx="86.81" ry="41.09"/>
<text text-anchor="middle" x="729" y="-617.48" font-family="Times New Roman,serif" font-size="14.00">Internal: (4, 6)</text>
<text text-anchor="middle" x="729" y="-600.68" font-family="Times New Roman,serif" font-size="14.00">MI: 0.072262</text>
<text text-anchor="middle" x="729" y="-583.88" font-family="Times New Roman,serif" font-size="14.00">Synergy: 0.002646</text>
</g>
<!-- Tree1&#45;4&#45;leaf -->
<g id="node5" class="node">
<title>Tree1&#45;4&#45;leaf</title>
<polygon fill="none" stroke="black" points="683.95,-443.69 528.05,-443.69 528.05,-384.88 683.95,-384.88 683.95,-443.69"/>
<text text-anchor="middle" x="606" y="-426.89" font-family="Times New Roman,serif" font-size="14.00">Leaf: (4,)</text>
<text text-anchor="middle" x="606" y="-410.09" font-family="Times New Roman,serif" font-size="14.00">MI: 0.006559</text>
<text text-anchor="middle" x="606" y="-393.29" font-family="Times New Roman,serif" font-size="14.00">Label: Pectus excavatum</text>
</g>
<!-- Tree1&#45;4&#45;6&#45;&gt;Tree1&#45;4&#45;leaf -->
<g id="edge3" class="edge">
<title>Tree1&#45;4&#45;6&#45;&gt;Tree1&#45;4&#45;leaf</title>
<path fill="none" stroke="black" d="M703.81,-565.26C682.29,-532.26 651.53,-485.09 630.27,-452.5"/>
<polygon fill="black" stroke="black" points="632.94,-450.18 624.54,-443.72 627.08,-454.01 632.94,-450.18"/>
</g>
<!-- Tree1&#45;6&#45;leaf -->
<g id="node6" class="node">
<title>Tree1&#45;6&#45;leaf</title>
<polygon fill="none" stroke="black" points="930.5,-443.69 755.5,-443.69 755.5,-384.88 930.5,-384.88 930.5,-443.69"/>
<text text-anchor="middle" x="843" y="-426.89" font-family="Times New Roman,serif" font-size="14.00">Leaf: (6,)</text>
<text text-anchor="middle" x="843" y="-410.09" font-family="Times New Roman,serif" font-size="14.00">MI: 0.063058</text>
<text text-anchor="middle" x="843" y="-393.29" font-family="Times New Roman,serif" font-size="14.00">Label: Aortic root aneurysm</text>
</g>
<!-- Tree1&#45;4&#45;6&#45;&gt;Tree1&#45;6&#45;leaf -->
<g id="edge4" class="edge">
<title>Tree1&#45;4&#45;6&#45;&gt;Tree1&#45;6&#45;leaf</title>
<path fill="none" stroke="black" d="M752.62,-564.8C772.59,-531.76 801,-484.76 820.61,-452.32"/>
<polygon fill="black" stroke="black" points="823.72,-453.95 825.9,-443.58 817.73,-450.33 823.72,-453.95"/>
</g>
<!-- Tree2&#45;0&#45;4&#45;5 -->
<g id="node7" class="node">
<title>Tree2&#45;0&#45;4&#45;5</title>
<ellipse fill="none" stroke="black" cx="1212" cy="-604.88" rx="86.81" ry="41.09"/>
<text text-anchor="middle" x="1212" y="-617.48" font-family="Times New Roman,serif" font-size="14.00">Internal: (0, 4, 5)</text>
<text text-anchor="middle" x="1212" y="-600.68" font-family="Times New Roman,serif" font-size="14.00">MI: 0.090918</text>
<text text-anchor="middle" x="1212" y="-583.88" font-family="Times New Roman,serif" font-size="14.00">Synergy: 0.003079</text>
</g>
<!-- Tree2&#45;0&#45;4 -->
<g id="node8" class="node">
<title>Tree2&#45;0&#45;4</title>
<ellipse fill="none" stroke="black" cx="1089" cy="-414.29" rx="86.81" ry="41.09"/>
<text text-anchor="middle" x="1089" y="-426.89" font-family="Times New Roman,serif" font-size="14.00">Internal: (0, 4)</text>
<text text-anchor="middle" x="1089" y="-410.09" font-family="Times New Roman,serif" font-size="14.00">MI: 0.072989</text>
<text text-anchor="middle" x="1089" y="-393.29" font-family="Times New Roman,serif" font-size="14.00">Synergy: 0.001345</text>
</g>
<!-- Tree2&#45;0&#45;4&#45;5&#45;&gt;Tree2&#45;0&#45;4 -->
<g id="edge5" class="edge">
<title>Tree2&#45;0&#45;4&#45;5&#45;&gt;Tree2&#45;0&#45;4</title>
<path fill="none" stroke="black" d="M1186.81,-565.26C1167.41,-535.51 1140.5,-494.24 1119.81,-462.53"/>
<polygon fill="black" stroke="black" points="1122.55,-460.32 1114.15,-453.85 1116.69,-464.14 1122.55,-460.32"/>
</g>
<!-- Tree2&#45;5&#45;leaf -->
<g id="node11" class="node">
<title>Tree2&#45;5&#45;leaf</title>
<polygon fill="none" stroke="black" points="1422.5,-443.69 1247.5,-443.69 1247.5,-384.88 1422.5,-384.88 1422.5,-443.69"/>
<text text-anchor="middle" x="1335" y="-426.89" font-family="Times New Roman,serif" font-size="14.00">Leaf: (5,)</text>
<text text-anchor="middle" x="1335" y="-410.09" font-family="Times New Roman,serif" font-size="14.00">MI: 0.014851</text>
<text text-anchor="middle" x="1335" y="-393.29" font-family="Times New Roman,serif" font-size="14.00">Label: Mitral valve prolapse</text>
</g>
<!-- Tree2&#45;0&#45;4&#45;5&#45;&gt;Tree2&#45;5&#45;leaf -->
<g id="edge8" class="edge">
<title>Tree2&#45;0&#45;4&#45;5&#45;&gt;Tree2&#45;5&#45;leaf</title>
<path fill="none" stroke="black" d="M1237.19,-565.26C1258.71,-532.26 1289.47,-485.09 1310.73,-452.5"/>
<polygon fill="black" stroke="black" points="1313.92,-454.01 1316.46,-443.72 1308.06,-450.18 1313.92,-454.01"/>
</g>
<!-- Tree2&#45;0&#45;leaf -->
<g id="node9" class="node">
<title>Tree2&#45;0&#45;leaf</title>
<polygon fill="none" stroke="black" points="1153.17,-253.1 1008.83,-253.1 1008.83,-194.29 1153.17,-194.29 1153.17,-253.1"/>
<text text-anchor="middle" x="1081" y="-236.3" font-family="Times New Roman,serif" font-size="14.00">Leaf: (0,)</text>
<text text-anchor="middle" x="1081" y="-219.5" font-family="Times New Roman,serif" font-size="14.00">MI: 0.065085</text>
<text text-anchor="middle" x="1081" y="-202.7" font-family="Times New Roman,serif" font-size="14.00">Label: Arachnodactyly</text>
</g>
<!-- Tree2&#45;0&#45;4&#45;&gt;Tree2&#45;0&#45;leaf -->
<g id="edge6" class="edge">
<title>Tree2&#45;0&#45;4&#45;&gt;Tree2&#45;0&#45;leaf</title>
<path fill="none" stroke="black" d="M1087.28,-372.83C1085.91,-340.45 1084,-295.33 1082.64,-263.42"/>
<polygon fill="black" stroke="black" points="1086.13,-262.98 1082.21,-253.14 1079.13,-263.28 1086.13,-262.98"/>
</g>
<!-- Tree2&#45;4&#45;leaf -->
<g id="node10" class="node">
<title>Tree2&#45;4&#45;leaf</title>
<polygon fill="none" stroke="black" points="1380.95,-253.1 1225.05,-253.1 1225.05,-194.29 1380.95,-194.29 1380.95,-253.1"/>
<text text-anchor="middle" x="1303" y="-236.3" font-family="Times New Roman,serif" font-size="14.00">Leaf: (4,)</text>
<text text-anchor="middle" x="1303" y="-219.5" font-family="Times New Roman,serif" font-size="14.00">MI: 0.006559</text>
<text text-anchor="middle" x="1303" y="-202.7" font-family="Times New Roman,serif" font-size="14.00">Label: Pectus excavatum</text>
</g>
<!-- Tree2&#45;0&#45;4&#45;&gt;Tree2&#45;4&#45;leaf -->
<g id="edge7" class="edge">
<title>Tree2&#45;0&#45;4&#45;&gt;Tree2&#45;4&#45;leaf</title>
<path fill="none" stroke="black" d="M1129.5,-377.59C1167.74,-343.89 1224.75,-293.66 1262.86,-260.07"/>
<polygon fill="black" stroke="black" points="1265.51,-262.4 1270.7,-253.16 1260.88,-257.15 1265.51,-262.4"/>
</g>
<!-- Tree3&#45;1&#45;4&#45;5 -->
<g id="node12" class="node">
<title>Tree3&#45;1&#45;4&#45;5</title>
<ellipse fill="none" stroke="black" cx="1776" cy="-604.88" rx="86.81" ry="41.09"/>
<text text-anchor="middle" x="1776" y="-617.48" font-family="Times New Roman,serif" font-size="14.00">Internal: (1, 4, 5)</text>
<text text-anchor="middle" x="1776" y="-600.68" font-family="Times New Roman,serif" font-size="14.00">MI: 0.088981</text>
<text text-anchor="middle" x="1776" y="-583.88" font-family="Times New Roman,serif" font-size="14.00">Synergy: 0.005567</text>
</g>
<!-- Tree3&#45;1&#45;leaf -->
<g id="node13" class="node">
<title>Tree3&#45;1&#45;leaf</title>
<polygon fill="none" stroke="black" points="1625.85,-443.69 1494.15,-443.69 1494.15,-384.88 1625.85,-384.88 1625.85,-443.69"/>
<text text-anchor="middle" x="1560" y="-426.89" font-family="Times New Roman,serif" font-size="14.00">Leaf: (1,)</text>
<text text-anchor="middle" x="1560" y="-410.09" font-family="Times New Roman,serif" font-size="14.00">MI: 0.062005</text>
<text text-anchor="middle" x="1560" y="-393.29" font-family="Times New Roman,serif" font-size="14.00">Label: Ectopia lentis</text>
</g>
<!-- Tree3&#45;1&#45;4&#45;5&#45;&gt;Tree3&#45;1&#45;leaf -->
<g id="edge9" class="edge">
<title>Tree3&#45;1&#45;4&#45;5&#45;&gt;Tree3&#45;1&#45;leaf</title>
<path fill="none" stroke="black" d="M1735.12,-568.18C1696.52,-534.48 1638.98,-484.25 1600.51,-450.66"/>
<polygon fill="black" stroke="black" points="1602.44,-447.69 1592.61,-443.75 1597.84,-452.97 1602.44,-447.69"/>
</g>
<!-- Tree3&#45;4&#45;leaf -->
<g id="node14" class="node">
<title>Tree3&#45;4&#45;leaf</title>
<polygon fill="none" stroke="black" points="1853.95,-443.69 1698.05,-443.69 1698.05,-384.88 1853.95,-384.88 1853.95,-443.69"/>
<text text-anchor="middle" x="1776" y="-426.89" font-family="Times New Roman,serif" font-size="14.00">Leaf: (4,)</text>
<text text-anchor="middle" x="1776" y="-410.09" font-family="Times New Roman,serif" font-size="14.00">MI: 0.006559</text>
<text text-anchor="middle" x="1776" y="-393.29" font-family="Times New Roman,serif" font-size="14.00">Label: Pectus excavatum</text>
</g>
<!-- Tree3&#45;1&#45;4&#45;5&#45;&gt;Tree3&#45;4&#45;leaf -->
<g id="edge10" class="edge">
<title>Tree3&#45;1&#45;4&#45;5&#45;&gt;Tree3&#45;4&#45;leaf</title>
<path fill="none" stroke="black" d="M1776,-563.42C1776,-531.04 1776,-485.92 1776,-454.01"/>
<polygon fill="black" stroke="black" points="1779.5,-453.73 1776,-443.73 1772.5,-453.73 1779.5,-453.73"/>
</g>
<!-- Tree3&#45;5&#45;leaf -->
<g id="node15" class="node">
<title>Tree3&#45;5&#45;leaf</title>
<polygon fill="none" stroke="black" points="2100.5,-443.69 1925.5,-443.69 1925.5,-384.88 2100.5,-384.88 2100.5,-443.69"/>
<text text-anchor="middle" x="2013" y="-426.89" font-family="Times New Roman,serif" font-size="14.00">Leaf: (5,)</text>
<text text-anchor="middle" x="2013" y="-410.09" font-family="Times New Roman,serif" font-size="14.00">MI: 0.014851</text>
<text text-anchor="middle" x="2013" y="-393.29" font-family="Times New Roman,serif" font-size="14.00">Label: Mitral valve prolapse</text>
</g>
<!-- Tree3&#45;1&#45;4&#45;5&#45;&gt;Tree3&#45;5&#45;leaf -->
<g id="edge11" class="edge">
<title>Tree3&#45;1&#45;4&#45;5&#45;&gt;Tree3&#45;5&#45;leaf</title>
<path fill="none" stroke="black" d="M1819.75,-569.07C1862.34,-535.17 1926.72,-483.94 1969.3,-450.06"/>
<polygon fill="black" stroke="black" points="1971.6,-452.7 1977.25,-443.73 1967.24,-447.22 1971.6,-452.7"/>
</g>
<!-- Tree4&#45;1&#45;2&#45;4&#45;5 -->
<g id="node16" class="node">
<title>Tree4&#45;1&#45;2&#45;4&#45;5</title>
<ellipse fill="none" stroke="black" cx="2552" cy="-604.88" rx="88.62" ry="41.09"/>
<text text-anchor="middle" x="2552" y="-617.48" font-family="Times New Roman,serif" font-size="14.00">Internal: (1, 2, 4, 5)</text>
<text text-anchor="middle" x="2552" y="-600.68" font-family="Times New Roman,serif" font-size="14.00">MI: 0.124960</text>
<text text-anchor="middle" x="2552" y="-583.88" font-family="Times New Roman,serif" font-size="14.00">Synergy: 0.003077</text>
</g>
<!-- Tree4&#45;1&#45;2&#45;5 -->
<g id="node17" class="node">
<title>Tree4&#45;1&#45;2&#45;5</title>
<ellipse fill="none" stroke="black" cx="2434" cy="-414.29" rx="86.81" ry="41.09"/>
<text text-anchor="middle" x="2434" y="-426.89" font-family="Times New Roman,serif" font-size="14.00">Internal: (1, 2, 5)</text>
<text text-anchor="middle" x="2434" y="-410.09" font-family="Times New Roman,serif" font-size="14.00">MI: 0.115324</text>
<text text-anchor="middle" x="2434" y="-393.29" font-family="Times New Roman,serif" font-size="14.00">Synergy: 0.008640</text>
</g>
<!-- Tree4&#45;1&#45;2&#45;4&#45;5&#45;&gt;Tree4&#45;1&#45;2&#45;5 -->
<g id="edge12" class="edge">
<title>Tree4&#45;1&#45;2&#45;4&#45;5&#45;&gt;Tree4&#45;1&#45;2&#45;5</title>
<path fill="none" stroke="black" d="M2527.55,-564.8C2508.98,-535.12 2483.35,-494.16 2463.62,-462.62"/>
<polygon fill="black" stroke="black" points="2466.49,-460.61 2458.22,-453.99 2460.55,-464.32 2466.49,-460.61"/>
</g>
<!-- Tree4&#45;4&#45;leaf -->
<g id="node21" class="node">
<title>Tree4&#45;4&#45;leaf</title>
<polygon fill="none" stroke="black" points="2748.95,-443.69 2593.05,-443.69 2593.05,-384.88 2748.95,-384.88 2748.95,-443.69"/>
<text text-anchor="middle" x="2671" y="-426.89" font-family="Times New Roman,serif" font-size="14.00">Leaf: (4,)</text>
<text text-anchor="middle" x="2671" y="-410.09" font-family="Times New Roman,serif" font-size="14.00">MI: 0.006559</text>
<text text-anchor="middle" x="2671" y="-393.29" font-family="Times New Roman,serif" font-size="14.00">Label: Pectus excavatum</text>
</g>
<!-- Tree4&#45;1&#45;2&#45;4&#45;5&#45;&gt;Tree4&#45;4&#45;leaf -->
<g id="edge16" class="edge">
<title>Tree4&#45;1&#45;2&#45;4&#45;5&#45;&gt;Tree4&#45;4&#45;leaf</title>
<path fill="none" stroke="black" d="M2576.66,-564.8C2597.5,-531.76 2627.16,-484.76 2647.63,-452.32"/>
<polygon fill="black" stroke="black" points="2650.77,-453.9 2653.15,-443.58 2644.85,-450.17 2650.77,-453.9"/>
</g>
<!-- Tree4&#45;1&#45;leaf -->
<g id="node18" class="node">
<title>Tree4&#45;1&#45;leaf</title>
<polygon fill="none" stroke="black" points="2255.85,-253.1 2124.15,-253.1 2124.15,-194.29 2255.85,-194.29 2255.85,-253.1"/>
<text text-anchor="middle" x="2190" y="-236.3" font-family="Times New Roman,serif" font-size="14.00">Leaf: (1,)</text>
<text text-anchor="middle" x="2190" y="-219.5" font-family="Times New Roman,serif" font-size="14.00">MI: 0.062005</text>
<text text-anchor="middle" x="2190" y="-202.7" font-family="Times New Roman,serif" font-size="14.00">Label: Ectopia lentis</text>
</g>
<!-- Tree4&#45;1&#45;2&#45;5&#45;&gt;Tree4&#45;1&#45;leaf -->
<g id="edge13" class="edge">
<title>Tree4&#45;1&#45;2&#45;5&#45;&gt;Tree4&#45;1&#45;leaf</title>
<path fill="none" stroke="black" d="M2389.25,-378.69C2345.21,-344.66 2278.36,-292.99 2234.44,-259.04"/>
<polygon fill="black" stroke="black" points="2236.57,-256.26 2226.51,-252.92 2232.28,-261.8 2236.57,-256.26"/>
</g>
<!-- Tree4&#45;2&#45;leaf -->
<g id="node19" class="node">
<title>Tree4&#45;2&#45;leaf</title>
<polygon fill="none" stroke="black" points="2540.33,-253.1 2327.67,-253.1 2327.67,-194.29 2540.33,-194.29 2540.33,-253.1"/>
<text text-anchor="middle" x="2434" y="-236.3" font-family="Times New Roman,serif" font-size="14.00">Leaf: (2,)</text>
<text text-anchor="middle" x="2434" y="-219.5" font-family="Times New Roman,serif" font-size="14.00">MI: 0.029828</text>
<text text-anchor="middle" x="2434" y="-202.7" font-family="Times New Roman,serif" font-size="14.00">Label: Disproportionate tall stature</text>
</g>
<!-- Tree4&#45;1&#45;2&#45;5&#45;&gt;Tree4&#45;2&#45;leaf -->
<g id="edge14" class="edge">
<title>Tree4&#45;1&#45;2&#45;5&#45;&gt;Tree4&#45;2&#45;leaf</title>
<path fill="none" stroke="black" d="M2434,-372.83C2434,-340.45 2434,-295.33 2434,-263.42"/>
<polygon fill="black" stroke="black" points="2437.5,-263.14 2434,-253.14 2430.5,-263.14 2437.5,-263.14"/>
</g>
<!-- Tree4&#45;5&#45;leaf -->
<g id="node20" class="node">
<title>Tree4&#45;5&#45;leaf</title>
<polygon fill="none" stroke="black" points="2787.5,-253.1 2612.5,-253.1 2612.5,-194.29 2787.5,-194.29 2787.5,-253.1"/>
<text text-anchor="middle" x="2700" y="-236.3" font-family="Times New Roman,serif" font-size="14.00">Leaf: (5,)</text>
<text text-anchor="middle" x="2700" y="-219.5" font-family="Times New Roman,serif" font-size="14.00">MI: 0.014851</text>
<text text-anchor="middle" x="2700" y="-202.7" font-family="Times New Roman,serif" font-size="14.00">Label: Mitral valve prolapse</text>
</g>
<!-- Tree4&#45;1&#45;2&#45;5&#45;&gt;Tree4&#45;5&#45;leaf -->
<g id="edge15" class="edge">
<title>Tree4&#45;1&#45;2&#45;5&#45;&gt;Tree4&#45;5&#45;leaf</title>
<path fill="none" stroke="black" d="M2481.56,-379.57C2529.49,-345.59 2603.09,-293.4 2651.39,-259.16"/>
<polygon fill="black" stroke="black" points="2653.67,-261.83 2659.81,-253.19 2649.63,-256.12 2653.67,-261.83"/>
</g>
<!-- Tree5&#45;1&#45;3&#45;4&#45;5 -->
<g id="node22" class="node">
<title>Tree5&#45;1&#45;3&#45;4&#45;5</title>
<ellipse fill="none" stroke="black" cx="3071" cy="-604.88" rx="88.62" ry="41.09"/>
<text text-anchor="middle" x="3071" y="-617.48" font-family="Times New Roman,serif" font-size="14.00">Internal: (1, 3, 4, 5)</text>
<text text-anchor="middle" x="3071" y="-600.68" font-family="Times New Roman,serif" font-size="14.00">MI: 0.132964</text>
<text text-anchor="middle" x="3071" y="-583.88" font-family="Times New Roman,serif" font-size="14.00">Synergy: 0.005012</text>
</g>
<!-- Tree5&#45;3&#45;4&#45;5 -->
<g id="node23" class="node">
<title>Tree5&#45;3&#45;4&#45;5</title>
<ellipse fill="none" stroke="black" cx="2959" cy="-414.29" rx="86.81" ry="41.09"/>
<text text-anchor="middle" x="2959" y="-426.89" font-family="Times New Roman,serif" font-size="14.00">Internal: (3, 4, 5)</text>
<text text-anchor="middle" x="2959" y="-410.09" font-family="Times New Roman,serif" font-size="14.00">MI: 0.065947</text>
<text text-anchor="middle" x="2959" y="-393.29" font-family="Times New Roman,serif" font-size="14.00">Synergy: 0.006904</text>
</g>
<!-- Tree5&#45;1&#45;3&#45;4&#45;5&#45;&gt;Tree5&#45;3&#45;4&#45;5 -->
<g id="edge17" class="edge">
<title>Tree5&#45;1&#45;3&#45;4&#45;5&#45;&gt;Tree5&#45;3&#45;4&#45;5</title>
<path fill="none" stroke="black" d="M3047.79,-564.8C3030.22,-535.21 3006,-494.43 2987.3,-462.93"/>
<polygon fill="black" stroke="black" points="2990.29,-461.12 2982.18,-454.31 2984.27,-464.7 2990.29,-461.12"/>
</g>
<!-- Tree5&#45;1&#45;leaf -->
<g id="node28" class="node">
<title>Tree5&#45;1&#45;leaf</title>
<polygon fill="none" stroke="black" points="3249.85,-443.69 3118.15,-443.69 3118.15,-384.88 3249.85,-384.88 3249.85,-443.69"/>
<text text-anchor="middle" x="3184" y="-426.89" font-family="Times New Roman,serif" font-size="14.00">Leaf: (1,)</text>
<text text-anchor="middle" x="3184" y="-410.09" font-family="Times New Roman,serif" font-size="14.00">MI: 0.062005</text>
<text text-anchor="middle" x="3184" y="-393.29" font-family="Times New Roman,serif" font-size="14.00">Label: Ectopia lentis</text>
</g>
<!-- Tree5&#45;1&#45;3&#45;4&#45;5&#45;&gt;Tree5&#45;1&#45;leaf -->
<g id="edge22" class="edge">
<title>Tree5&#45;1&#45;3&#45;4&#45;5&#45;&gt;Tree5&#45;1&#45;leaf</title>
<path fill="none" stroke="black" d="M3094.41,-564.8C3114.21,-531.76 3142.37,-484.76 3161.81,-452.32"/>
<polygon fill="black" stroke="black" points="3164.91,-453.95 3167.05,-443.58 3158.91,-450.36 3164.91,-453.95"/>
</g>
<!-- Tree5&#45;3&#45;5 -->
<g id="node24" class="node">
<title>Tree5&#45;3&#45;5</title>
<ellipse fill="none" stroke="black" cx="2946" cy="-223.7" rx="86.81" ry="41.09"/>
<text text-anchor="middle" x="2946" y="-236.3" font-family="Times New Roman,serif" font-size="14.00">Internal: (3, 5)</text>
<text text-anchor="middle" x="2946" y="-219.5" font-family="Times New Roman,serif" font-size="14.00">MI: 0.052485</text>
<text text-anchor="middle" x="2946" y="-202.7" font-family="Times New Roman,serif" font-size="14.00">Synergy: 0.000399</text>
</g>
<!-- Tree5&#45;3&#45;4&#45;5&#45;&gt;Tree5&#45;3&#45;5 -->
<g id="edge18" class="edge">
<title>Tree5&#45;3&#45;4&#45;5&#45;&gt;Tree5&#45;3&#45;5</title>
<path fill="none" stroke="black" d="M2956.21,-372.83C2954.24,-344.24 2951.59,-305.72 2949.48,-275.13"/>
<polygon fill="black" stroke="black" points="2952.96,-274.82 2948.78,-265.09 2945.98,-275.3 2952.96,-274.82"/>
</g>
<!-- Tree5&#45;4&#45;leaf -->
<g id="node27" class="node">
<title>Tree5&#45;4&#45;leaf</title>
<polygon fill="none" stroke="black" points="3260.95,-253.1 3105.05,-253.1 3105.05,-194.29 3260.95,-194.29 3260.95,-253.1"/>
<text text-anchor="middle" x="3183" y="-236.3" font-family="Times New Roman,serif" font-size="14.00">Leaf: (4,)</text>
<text text-anchor="middle" x="3183" y="-219.5" font-family="Times New Roman,serif" font-size="14.00">MI: 0.006559</text>
<text text-anchor="middle" x="3183" y="-202.7" font-family="Times New Roman,serif" font-size="14.00">Label: Pectus excavatum</text>
</g>
<!-- Tree5&#45;3&#45;4&#45;5&#45;&gt;Tree5&#45;4&#45;leaf -->
<g id="edge21" class="edge">
<title>Tree5&#45;3&#45;4&#45;5&#45;&gt;Tree5&#45;4&#45;leaf</title>
<path fill="none" stroke="black" d="M3000.87,-378.03C3041.11,-344.15 3101.57,-293.25 3141.64,-259.51"/>
<polygon fill="black" stroke="black" points="3143.98,-262.12 3149.37,-253.01 3139.47,-256.77 3143.98,-262.12"/>
</g>
<!-- Tree5&#45;3&#45;leaf -->
<g id="node25" class="node">
<title>Tree5&#45;3&#45;leaf</title>
<polygon fill="none" stroke="black" points="3019.81,-74.6 2854.19,-74.6 2854.19,-15.8 3019.81,-15.8 3019.81,-74.6"/>
<text text-anchor="middle" x="2937" y="-57.8" font-family="Times New Roman,serif" font-size="14.00">Leaf: (3,)</text>
<text text-anchor="middle" x="2937" y="-41" font-family="Times New Roman,serif" font-size="14.00">MI: 0.037235</text>
<text text-anchor="middle" x="2937" y="-24.2" font-family="Times New Roman,serif" font-size="14.00">Label: Joint hypermobility</text>
</g>
<!-- Tree5&#45;3&#45;5&#45;&gt;Tree5&#45;3&#45;leaf -->
<g id="edge19" class="edge">
<title>Tree5&#45;3&#45;5&#45;&gt;Tree5&#45;3&#45;leaf</title>
<path fill="none" stroke="black" d="M2943.94,-182.2C2942.44,-152.84 2940.43,-113.37 2938.95,-84.52"/>
<polygon fill="black" stroke="black" points="2942.44,-84.22 2938.44,-74.41 2935.45,-84.57 2942.44,-84.22"/>
</g>
<!-- Tree5&#45;5&#45;leaf -->
<g id="node26" class="node">
<title>Tree5&#45;5&#45;leaf</title>
<polygon fill="none" stroke="black" points="3266.5,-74.6 3091.5,-74.6 3091.5,-15.8 3266.5,-15.8 3266.5,-74.6"/>
<text text-anchor="middle" x="3179" y="-57.8" font-family="Times New Roman,serif" font-size="14.00">Leaf: (5,)</text>
<text text-anchor="middle" x="3179" y="-41" font-family="Times New Roman,serif" font-size="14.00">MI: 0.014851</text>
<text text-anchor="middle" x="3179" y="-24.2" font-family="Times New Roman,serif" font-size="14.00">Label: Mitral valve prolapse</text>
</g>
<!-- Tree5&#45;3&#45;5&#45;&gt;Tree5&#45;5&#45;leaf -->
<g id="edge20" class="edge">
<title>Tree5&#45;3&#45;5&#45;&gt;Tree5&#45;5&#45;leaf</title>
<path fill="none" stroke="black" d="M2991.2,-188.46C3032.18,-157.41 3092.29,-111.88 3133.39,-80.75"/>
<polygon fill="black" stroke="black" points="3135.75,-83.35 3141.61,-74.52 3131.52,-77.77 3135.75,-83.35"/>
</g>
<!-- Tree6&#45;3&#45;4&#45;5&#45;6 -->
<g id="node29" class="node">
<title>Tree6&#45;3&#45;4&#45;5&#45;6</title>
<ellipse fill="none" stroke="black" cx="3546" cy="-604.88" rx="88.62" ry="41.09"/>
<text text-anchor="middle" x="3546" y="-617.48" font-family="Times New Roman,serif" font-size="14.00">Internal: (3, 4, 5, 6)</text>
<text text-anchor="middle" x="3546" y="-600.68" font-family="Times New Roman,serif" font-size="14.00">MI: 0.129374</text>
<text text-anchor="middle" x="3546" y="-583.88" font-family="Times New Roman,serif" font-size="14.00">Synergy: 0.000369</text>
</g>
<!-- Tree6&#45;3&#45;4&#45;5 -->
<g id="node30" class="node">
<title>Tree6&#45;3&#45;4&#45;5</title>
<ellipse fill="none" stroke="black" cx="3423" cy="-414.29" rx="86.81" ry="41.09"/>
<text text-anchor="middle" x="3423" y="-426.89" font-family="Times New Roman,serif" font-size="14.00">Internal: (3, 4, 5)</text>
<text text-anchor="middle" x="3423" y="-410.09" font-family="Times New Roman,serif" font-size="14.00">MI: 0.065947</text>
<text text-anchor="middle" x="3423" y="-393.29" font-family="Times New Roman,serif" font-size="14.00">Synergy: 0.006904</text>
</g>
<!-- Tree6&#45;3&#45;4&#45;5&#45;6&#45;&gt;Tree6&#45;3&#45;4&#45;5 -->
<g id="edge23" class="edge">
<title>Tree6&#45;3&#45;4&#45;5&#45;6&#45;&gt;Tree6&#45;3&#45;4&#45;5</title>
<path fill="none" stroke="black" d="M3520.81,-565.26C3501.41,-535.51 3474.5,-494.24 3453.81,-462.53"/>
<polygon fill="black" stroke="black" points="3456.55,-460.32 3448.15,-453.85 3450.69,-464.14 3456.55,-460.32"/>
</g>
<!-- Tree6&#45;6&#45;leaf -->
<g id="node35" class="node">
<title>Tree6&#45;6&#45;leaf</title>
<polygon fill="none" stroke="black" points="3756.5,-443.69 3581.5,-443.69 3581.5,-384.88 3756.5,-384.88 3756.5,-443.69"/>
<text text-anchor="middle" x="3669" y="-426.89" font-family="Times New Roman,serif" font-size="14.00">Leaf: (6,)</text>
<text text-anchor="middle" x="3669" y="-410.09" font-family="Times New Roman,serif" font-size="14.00">MI: 0.063058</text>
<text text-anchor="middle" x="3669" y="-393.29" font-family="Times New Roman,serif" font-size="14.00">Label: Aortic root aneurysm</text>
</g>
<!-- Tree6&#45;3&#45;4&#45;5&#45;6&#45;&gt;Tree6&#45;6&#45;leaf -->
<g id="edge28" class="edge">
<title>Tree6&#45;3&#45;4&#45;5&#45;6&#45;&gt;Tree6&#45;6&#45;leaf</title>
<path fill="none" stroke="black" d="M3571.19,-565.26C3592.71,-532.26 3623.47,-485.09 3644.73,-452.5"/>
<polygon fill="black" stroke="black" points="3647.92,-454.01 3650.46,-443.72 3642.06,-450.18 3647.92,-454.01"/>
</g>
<!-- Tree6&#45;3&#45;5 -->
<g id="node31" class="node">
<title>Tree6&#45;3&#45;5</title>
<ellipse fill="none" stroke="black" cx="3423" cy="-223.7" rx="86.81" ry="41.09"/>
<text text-anchor="middle" x="3423" y="-236.3" font-family="Times New Roman,serif" font-size="14.00">Internal: (3, 5)</text>
<text text-anchor="middle" x="3423" y="-219.5" font-family="Times New Roman,serif" font-size="14.00">MI: 0.052485</text>
<text text-anchor="middle" x="3423" y="-202.7" font-family="Times New Roman,serif" font-size="14.00">Synergy: 0.000399</text>
</g>
<!-- Tree6&#45;3&#45;4&#45;5&#45;&gt;Tree6&#45;3&#45;5 -->
<g id="edge24" class="edge">
<title>Tree6&#45;3&#45;4&#45;5&#45;&gt;Tree6&#45;3&#45;5</title>
<path fill="none" stroke="black" d="M3423,-372.83C3423,-344.24 3423,-305.72 3423,-275.13"/>
<polygon fill="black" stroke="black" points="3426.5,-275.09 3423,-265.09 3419.5,-275.09 3426.5,-275.09"/>
</g>
<!-- Tree6&#45;4&#45;leaf -->
<g id="node34" class="node">
<title>Tree6&#45;4&#45;leaf</title>
<polygon fill="none" stroke="black" points="3737.95,-253.1 3582.05,-253.1 3582.05,-194.29 3737.95,-194.29 3737.95,-253.1"/>
<text text-anchor="middle" x="3660" y="-236.3" font-family="Times New Roman,serif" font-size="14.00">Leaf: (4,)</text>
<text text-anchor="middle" x="3660" y="-219.5" font-family="Times New Roman,serif" font-size="14.00">MI: 0.006559</text>
<text text-anchor="middle" x="3660" y="-202.7" font-family="Times New Roman,serif" font-size="14.00">Label: Pectus excavatum</text>
</g>
<!-- Tree6&#45;3&#45;4&#45;5&#45;&gt;Tree6&#45;4&#45;leaf -->
<g id="edge27" class="edge">
<title>Tree6&#45;3&#45;4&#45;5&#45;&gt;Tree6&#45;4&#45;leaf</title>
<path fill="none" stroke="black" d="M3466.75,-378.48C3509.34,-344.58 3573.72,-293.35 3616.3,-259.47"/>
<polygon fill="black" stroke="black" points="3618.6,-262.11 3624.25,-253.14 3614.24,-256.63 3618.6,-262.11"/>
</g>
<!-- Tree6&#45;3&#45;leaf -->
<g id="node32" class="node">
<title>Tree6&#45;3&#45;leaf</title>
<polygon fill="none" stroke="black" points="3503.81,-74.6 3338.19,-74.6 3338.19,-15.8 3503.81,-15.8 3503.81,-74.6"/>
<text text-anchor="middle" x="3421" y="-57.8" font-family="Times New Roman,serif" font-size="14.00">Leaf: (3,)</text>
<text text-anchor="middle" x="3421" y="-41" font-family="Times New Roman,serif" font-size="14.00">MI: 0.037235</text>
<text text-anchor="middle" x="3421" y="-24.2" font-family="Times New Roman,serif" font-size="14.00">Label: Joint hypermobility</text>
</g>
<!-- Tree6&#45;3&#45;5&#45;&gt;Tree6&#45;3&#45;leaf -->
<g id="edge25" class="edge">
<title>Tree6&#45;3&#45;5&#45;&gt;Tree6&#45;3&#45;leaf</title>
<path fill="none" stroke="black" d="M3422.54,-182.2C3422.21,-152.84 3421.76,-113.37 3421.43,-84.52"/>
<polygon fill="black" stroke="black" points="3424.93,-84.37 3421.32,-74.41 3417.93,-84.45 3424.93,-84.37"/>
</g>
<!-- Tree6&#45;5&#45;leaf -->
<g id="node33" class="node">
<title>Tree6&#45;5&#45;leaf</title>
<polygon fill="none" stroke="black" points="3750.5,-74.6 3575.5,-74.6 3575.5,-15.8 3750.5,-15.8 3750.5,-74.6"/>
<text text-anchor="middle" x="3663" y="-57.8" font-family="Times New Roman,serif" font-size="14.00">Leaf: (5,)</text>
<text text-anchor="middle" x="3663" y="-41" font-family="Times New Roman,serif" font-size="14.00">MI: 0.014851</text>
<text text-anchor="middle" x="3663" y="-24.2" font-family="Times New Roman,serif" font-size="14.00">Label: Mitral valve prolapse</text>
</g>
<!-- Tree6&#45;3&#45;5&#45;&gt;Tree6&#45;5&#45;leaf -->
<g id="edge26" class="edge">
<title>Tree6&#45;3&#45;5&#45;&gt;Tree6&#45;5&#45;leaf</title>
<path fill="none" stroke="black" d="M3469.27,-188.67C3511.54,-157.58 3573.74,-111.84 3616.18,-80.63"/>
<polygon fill="black" stroke="black" points="3618.41,-83.34 3624.39,-74.59 3614.26,-77.7 3618.41,-83.34"/>
</g>
<!-- Tree7&#45;1&#45;2&#45;3&#45;4&#45;5 -->
<g id="node36" class="node">
<title>Tree7&#45;1&#45;2&#45;3&#45;4&#45;5</title>
<ellipse fill="none" stroke="black" cx="4243" cy="-604.88" rx="98.42" ry="41.09"/>
<text text-anchor="middle" x="4243" y="-617.48" font-family="Times New Roman,serif" font-size="14.00">Internal: (1, 2, 3, 4, 5)</text>
<text text-anchor="middle" x="4243" y="-600.68" font-family="Times New Roman,serif" font-size="14.00">MI: 0.176468</text>
<text text-anchor="middle" x="4243" y="-583.88" font-family="Times New Roman,serif" font-size="14.00">Synergy: 0.011170</text>
</g>
<!-- Tree7&#45;2&#45;3&#45;4&#45;5 -->
<g id="node37" class="node">
<title>Tree7&#45;2&#45;3&#45;4&#45;5</title>
<ellipse fill="none" stroke="black" cx="4130" cy="-414.29" rx="88.62" ry="41.09"/>
<text text-anchor="middle" x="4130" y="-426.89" font-family="Times New Roman,serif" font-size="14.00">Internal: (2, 3, 4, 5)</text>
<text text-anchor="middle" x="4130" y="-410.09" font-family="Times New Roman,serif" font-size="14.00">MI: 0.103293</text>
<text text-anchor="middle" x="4130" y="-393.29" font-family="Times New Roman,serif" font-size="14.00">Synergy: 0.002776</text>
</g>
<!-- Tree7&#45;1&#45;2&#45;3&#45;4&#45;5&#45;&gt;Tree7&#45;2&#45;3&#45;4&#45;5 -->
<g id="edge29" class="edge">
<title>Tree7&#45;1&#45;2&#45;3&#45;4&#45;5&#45;&gt;Tree7&#45;2&#45;3&#45;4&#45;5</title>
<path fill="none" stroke="black" d="M4219.31,-564.34C4201.7,-534.95 4177.58,-494.69 4158.84,-463.42"/>
<polygon fill="black" stroke="black" points="4161.61,-461.22 4153.46,-454.44 4155.6,-464.82 4161.61,-461.22"/>
</g>
<!-- Tree7&#45;1&#45;leaf -->
<g id="node43" class="node">
<title>Tree7&#45;1&#45;leaf</title>
<polygon fill="none" stroke="black" points="4421.85,-443.69 4290.15,-443.69 4290.15,-384.88 4421.85,-384.88 4421.85,-443.69"/>
<text text-anchor="middle" x="4356" y="-426.89" font-family="Times New Roman,serif" font-size="14.00">Leaf: (1,)</text>
<text text-anchor="middle" x="4356" y="-410.09" font-family="Times New Roman,serif" font-size="14.00">MI: 0.062005</text>
<text text-anchor="middle" x="4356" y="-393.29" font-family="Times New Roman,serif" font-size="14.00">Label: Ectopia lentis</text>
</g>
<!-- Tree7&#45;1&#45;2&#45;3&#45;4&#45;5&#45;&gt;Tree7&#45;1&#45;leaf -->
<g id="edge35" class="edge">
<title>Tree7&#45;1&#45;2&#45;3&#45;4&#45;5&#45;&gt;Tree7&#45;1&#45;leaf</title>
<path fill="none" stroke="black" d="M4266.69,-564.34C4286.45,-531.37 4314.4,-484.72 4333.74,-452.43"/>
<polygon fill="black" stroke="black" points="4336.82,-454.1 4338.96,-443.72 4330.82,-450.5 4336.82,-454.1"/>
</g>
<!-- Tree7&#45;4&#45;leaf -->
<g id="node38" class="node">
<title>Tree7&#45;4&#45;leaf</title>
<polygon fill="none" stroke="black" points="3970.95,-253.1 3815.05,-253.1 3815.05,-194.29 3970.95,-194.29 3970.95,-253.1"/>
<text text-anchor="middle" x="3893" y="-236.3" font-family="Times New Roman,serif" font-size="14.00">Leaf: (4,)</text>
<text text-anchor="middle" x="3893" y="-219.5" font-family="Times New Roman,serif" font-size="14.00">MI: 0.006559</text>
<text text-anchor="middle" x="3893" y="-202.7" font-family="Times New Roman,serif" font-size="14.00">Label: Pectus excavatum</text>
</g>
<!-- Tree7&#45;2&#45;3&#45;4&#45;5&#45;&gt;Tree7&#45;4&#45;leaf -->
<g id="edge30" class="edge">
<title>Tree7&#45;2&#45;3&#45;4&#45;5&#45;&gt;Tree7&#45;4&#45;leaf</title>
<path fill="none" stroke="black" d="M4085.98,-378.25C4043.35,-344.33 3979.08,-293.2 3936.6,-259.39"/>
<polygon fill="black" stroke="black" points="3938.67,-256.56 3928.66,-253.07 3934.31,-262.04 3938.67,-256.56"/>
</g>
<!-- Tree7&#45;2&#45;3 -->
<g id="node39" class="node">
<title>Tree7&#45;2&#45;3</title>
<ellipse fill="none" stroke="black" cx="4130" cy="-223.7" rx="86.81" ry="41.09"/>
<text text-anchor="middle" x="4130" y="-236.3" font-family="Times New Roman,serif" font-size="14.00">Internal: (2, 3)</text>
<text text-anchor="middle" x="4130" y="-219.5" font-family="Times New Roman,serif" font-size="14.00">MI: 0.079107</text>
<text text-anchor="middle" x="4130" y="-202.7" font-family="Times New Roman,serif" font-size="14.00">Synergy: 0.012044</text>
</g>
<!-- Tree7&#45;2&#45;3&#45;4&#45;5&#45;&gt;Tree7&#45;2&#45;3 -->
<g id="edge31" class="edge">
<title>Tree7&#45;2&#45;3&#45;4&#45;5&#45;&gt;Tree7&#45;2&#45;3</title>
<path fill="none" stroke="black" d="M4130,-372.83C4130,-344.24 4130,-305.72 4130,-275.13"/>
<polygon fill="black" stroke="black" points="4133.5,-275.09 4130,-265.09 4126.5,-275.09 4133.5,-275.09"/>
</g>
<!-- Tree7&#45;5&#45;leaf -->
<g id="node42" class="node">
<title>Tree7&#45;5&#45;leaf</title>
<polygon fill="none" stroke="black" points="4463.5,-253.1 4288.5,-253.1 4288.5,-194.29 4463.5,-194.29 4463.5,-253.1"/>
<text text-anchor="middle" x="4376" y="-236.3" font-family="Times New Roman,serif" font-size="14.00">Leaf: (5,)</text>
<text text-anchor="middle" x="4376" y="-219.5" font-family="Times New Roman,serif" font-size="14.00">MI: 0.014851</text>
<text text-anchor="middle" x="4376" y="-202.7" font-family="Times New Roman,serif" font-size="14.00">Label: Mitral valve prolapse</text>
</g>
<!-- Tree7&#45;2&#45;3&#45;4&#45;5&#45;&gt;Tree7&#45;5&#45;leaf -->
<g id="edge34" class="edge">
<title>Tree7&#45;2&#45;3&#45;4&#45;5&#45;&gt;Tree7&#45;5&#45;leaf</title>
<path fill="none" stroke="black" d="M4175.12,-378.69C4219.52,-344.66 4286.91,-292.99 4331.2,-259.04"/>
<polygon fill="black" stroke="black" points="4333.38,-261.78 4339.19,-252.92 4329.12,-256.22 4333.38,-261.78"/>
</g>
<!-- Tree7&#45;2&#45;leaf -->
<g id="node40" class="node">
<title>Tree7&#45;2&#45;leaf</title>
<polygon fill="none" stroke="black" points="4131.33,-74.6 3918.67,-74.6 3918.67,-15.8 4131.33,-15.8 4131.33,-74.6"/>
<text text-anchor="middle" x="4025" y="-57.8" font-family="Times New Roman,serif" font-size="14.00">Leaf: (2,)</text>
<text text-anchor="middle" x="4025" y="-41" font-family="Times New Roman,serif" font-size="14.00">MI: 0.029828</text>
<text text-anchor="middle" x="4025" y="-24.2" font-family="Times New Roman,serif" font-size="14.00">Label: Disproportionate tall stature</text>
</g>
<!-- Tree7&#45;2&#45;3&#45;&gt;Tree7&#45;2&#45;leaf -->
<g id="edge32" class="edge">
<title>Tree7&#45;2&#45;3&#45;&gt;Tree7&#45;2&#45;leaf</title>
<path fill="none" stroke="black" d="M4106.7,-183.53C4088.9,-153.61 4064.55,-112.67 4047.06,-83.29"/>
<polygon fill="black" stroke="black" points="4050,-81.37 4041.88,-74.57 4043.98,-84.95 4050,-81.37"/>
</g>
<!-- Tree7&#45;3&#45;leaf -->
<g id="node41" class="node">
<title>Tree7&#45;3&#45;leaf</title>
<polygon fill="none" stroke="black" points="4368.81,-74.6 4203.19,-74.6 4203.19,-15.8 4368.81,-15.8 4368.81,-74.6"/>
<text text-anchor="middle" x="4286" y="-57.8" font-family="Times New Roman,serif" font-size="14.00">Leaf: (3,)</text>
<text text-anchor="middle" x="4286" y="-41" font-family="Times New Roman,serif" font-size="14.00">MI: 0.037235</text>
<text text-anchor="middle" x="4286" y="-24.2" font-family="Times New Roman,serif" font-size="14.00">Label: Joint hypermobility</text>
</g>
<!-- Tree7&#45;2&#45;3&#45;&gt;Tree7&#45;3&#45;leaf -->
<g id="edge33" class="edge">
<title>Tree7&#45;2&#45;3&#45;&gt;Tree7&#45;3&#45;leaf</title>
<path fill="none" stroke="black" d="M4163.08,-185.26C4189.93,-154.89 4227.55,-112.33 4254.08,-82.32"/>
<polygon fill="black" stroke="black" points="4256.91,-84.4 4260.91,-74.59 4251.66,-79.76 4256.91,-84.4"/>
</g>
<!-- Tree8&#45;2&#45;3&#45;4&#45;5&#45;6 -->
<g id="node44" class="node">
<title>Tree8&#45;2&#45;3&#45;4&#45;5&#45;6</title>
<ellipse fill="none" stroke="black" cx="4966" cy="-604.88" rx="98.42" ry="41.09"/>
<text text-anchor="middle" x="4966" y="-617.48" font-family="Times New Roman,serif" font-size="14.00">Internal: (2, 3, 4, 5, 6)</text>
<text text-anchor="middle" x="4966" y="-600.68" font-family="Times New Roman,serif" font-size="14.00">MI: 0.167871</text>
<text text-anchor="middle" x="4966" y="-583.88" font-family="Times New Roman,serif" font-size="14.00">Synergy: 0.001521</text>
</g>
<!-- Tree8&#45;2&#45;3&#45;4&#45;5 -->
<g id="node45" class="node">
<title>Tree8&#45;2&#45;3&#45;4&#45;5</title>
<ellipse fill="none" stroke="black" cx="4847" cy="-414.29" rx="88.62" ry="41.09"/>
<text text-anchor="middle" x="4847" y="-426.89" font-family="Times New Roman,serif" font-size="14.00">Internal: (2, 3, 4, 5)</text>
<text text-anchor="middle" x="4847" y="-410.09" font-family="Times New Roman,serif" font-size="14.00">MI: 0.103293</text>
<text text-anchor="middle" x="4847" y="-393.29" font-family="Times New Roman,serif" font-size="14.00">Synergy: 0.002776</text>
</g>
<!-- Tree8&#45;2&#45;3&#45;4&#45;5&#45;6&#45;&gt;Tree8&#45;2&#45;3&#45;4&#45;5 -->
<g id="edge36" class="edge">
<title>Tree8&#45;2&#45;3&#45;4&#45;5&#45;6&#45;&gt;Tree8&#45;2&#45;3&#45;4&#45;5</title>
<path fill="none" stroke="black" d="M4941.34,-564.8C4922.61,-535.12 4896.77,-494.16 4876.87,-462.62"/>
<polygon fill="black" stroke="black" points="4879.72,-460.58 4871.42,-453.99 4873.8,-464.31 4879.72,-460.58"/>
</g>
<!-- Tree8&#45;6&#45;leaf -->
<g id="node51" class="node">
<title>Tree8&#45;6&#45;leaf</title>
<polygon fill="none" stroke="black" points="5182.5,-443.69 5007.5,-443.69 5007.5,-384.88 5182.5,-384.88 5182.5,-443.69"/>
<text text-anchor="middle" x="5095" y="-426.89" font-family="Times New Roman,serif" font-size="14.00">Leaf: (6,)</text>
<text text-anchor="middle" x="5095" y="-410.09" font-family="Times New Roman,serif" font-size="14.00">MI: 0.063058</text>
<text text-anchor="middle" x="5095" y="-393.29" font-family="Times New Roman,serif" font-size="14.00">Label: Aortic root aneurysm</text>
</g>
<!-- Tree8&#45;2&#45;3&#45;4&#45;5&#45;6&#45;&gt;Tree8&#45;6&#45;leaf -->
<g id="edge42" class="edge">
<title>Tree8&#45;2&#45;3&#45;4&#45;5&#45;6&#45;&gt;Tree8&#45;6&#45;leaf</title>
<path fill="none" stroke="black" d="M4992.73,-564.8C5015.42,-531.62 5047.75,-484.36 5069.95,-451.9"/>
<polygon fill="black" stroke="black" points="5072.89,-453.81 5075.65,-443.58 5067.11,-449.86 5072.89,-453.81"/>
</g>
<!-- Tree8&#45;4&#45;leaf -->
<g id="node46" class="node">
<title>Tree8&#45;4&#45;leaf</title>
<polygon fill="none" stroke="black" points="4690.95,-253.1 4535.05,-253.1 4535.05,-194.29 4690.95,-194.29 4690.95,-253.1"/>
<text text-anchor="middle" x="4613" y="-236.3" font-family="Times New Roman,serif" font-size="14.00">Leaf: (4,)</text>
<text text-anchor="middle" x="4613" y="-219.5" font-family="Times New Roman,serif" font-size="14.00">MI: 0.006559</text>
<text text-anchor="middle" x="4613" y="-202.7" font-family="Times New Roman,serif" font-size="14.00">Label: Pectus excavatum</text>
</g>
<!-- Tree8&#45;2&#45;3&#45;4&#45;5&#45;&gt;Tree8&#45;4&#45;leaf -->
<g id="edge37" class="edge">
<title>Tree8&#45;2&#45;3&#45;4&#45;5&#45;&gt;Tree8&#45;4&#45;leaf</title>
<path fill="none" stroke="black" d="M4803.53,-378.25C4761.44,-344.33 4697.99,-293.2 4656.04,-259.39"/>
<polygon fill="black" stroke="black" points="4658.2,-256.62 4648.21,-253.07 4653.8,-262.08 4658.2,-256.62"/>
</g>
<!-- Tree8&#45;2&#45;3 -->
<g id="node47" class="node">
<title>Tree8&#45;2&#45;3</title>
<ellipse fill="none" stroke="black" cx="4850" cy="-223.7" rx="86.81" ry="41.09"/>
<text text-anchor="middle" x="4850" y="-236.3" font-family="Times New Roman,serif" font-size="14.00">Internal: (2, 3)</text>
<text text-anchor="middle" x="4850" y="-219.5" font-family="Times New Roman,serif" font-size="14.00">MI: 0.079107</text>
<text text-anchor="middle" x="4850" y="-202.7" font-family="Times New Roman,serif" font-size="14.00">Synergy: 0.012044</text>
</g>
<!-- Tree8&#45;2&#45;3&#45;4&#45;5&#45;&gt;Tree8&#45;2&#45;3 -->
<g id="edge38" class="edge">
<title>Tree8&#45;2&#45;3&#45;4&#45;5&#45;&gt;Tree8&#45;2&#45;3</title>
<path fill="none" stroke="black" d="M4847.64,-372.83C4848.1,-344.24 4848.71,-305.72 4849.2,-275.13"/>
<polygon fill="black" stroke="black" points="4852.7,-275.14 4849.36,-265.09 4845.7,-275.03 4852.7,-275.14"/>
</g>
<!-- Tree8&#45;5&#45;leaf -->
<g id="node50" class="node">
<title>Tree8&#45;5&#45;leaf</title>
<polygon fill="none" stroke="black" points="5183.5,-253.1 5008.5,-253.1 5008.5,-194.29 5183.5,-194.29 5183.5,-253.1"/>
<text text-anchor="middle" x="5096" y="-236.3" font-family="Times New Roman,serif" font-size="14.00">Leaf: (5,)</text>
<text text-anchor="middle" x="5096" y="-219.5" font-family="Times New Roman,serif" font-size="14.00">MI: 0.014851</text>
<text text-anchor="middle" x="5096" y="-202.7" font-family="Times New Roman,serif" font-size="14.00">Label: Mitral valve prolapse</text>
</g>
<!-- Tree8&#45;2&#45;3&#45;4&#45;5&#45;&gt;Tree8&#45;5&#45;leaf -->
<g id="edge41" class="edge">
<title>Tree8&#45;2&#45;3&#45;4&#45;5&#45;&gt;Tree8&#45;5&#45;leaf</title>
<path fill="none" stroke="black" d="M4892.67,-378.69C4937.61,-344.66 5005.83,-292.99 5050.65,-259.04"/>
<polygon fill="black" stroke="black" points="5052.88,-261.74 5058.74,-252.92 5048.65,-256.16 5052.88,-261.74"/>
</g>
<!-- Tree8&#45;2&#45;leaf -->
<g id="node48" class="node">
<title>Tree8&#45;2&#45;leaf</title>
<polygon fill="none" stroke="black" points="4846.33,-74.6 4633.67,-74.6 4633.67,-15.8 4846.33,-15.8 4846.33,-74.6"/>
<text text-anchor="middle" x="4740" y="-57.8" font-family="Times New Roman,serif" font-size="14.00">Leaf: (2,)</text>
<text text-anchor="middle" x="4740" y="-41" font-family="Times New Roman,serif" font-size="14.00">MI: 0.029828</text>
<text text-anchor="middle" x="4740" y="-24.2" font-family="Times New Roman,serif" font-size="14.00">Label: Disproportionate tall stature</text>
</g>
<!-- Tree8&#45;2&#45;3&#45;&gt;Tree8&#45;2&#45;leaf -->
<g id="edge39" class="edge">
<title>Tree8&#45;2&#45;3&#45;&gt;Tree8&#45;2&#45;leaf</title>
<path fill="none" stroke="black" d="M4825.86,-183.96C4807.18,-153.98 4781.47,-112.73 4763.06,-83.2"/>
<polygon fill="black" stroke="black" points="4765.86,-81.07 4757.6,-74.44 4759.92,-84.77 4765.86,-81.07"/>
</g>
<!-- Tree8&#45;3&#45;leaf -->
<g id="node49" class="node">
<title>Tree8&#45;3&#45;leaf</title>
<polygon fill="none" stroke="black" points="5083.81,-74.6 4918.19,-74.6 4918.19,-15.8 5083.81,-15.8 5083.81,-74.6"/>
<text text-anchor="middle" x="5001" y="-57.8" font-family="Times New Roman,serif" font-size="14.00">Leaf: (3,)</text>
<text text-anchor="middle" x="5001" y="-41" font-family="Times New Roman,serif" font-size="14.00">MI: 0.037235</text>
<text text-anchor="middle" x="5001" y="-24.2" font-family="Times New Roman,serif" font-size="14.00">Label: Joint hypermobility</text>
</g>
<!-- Tree8&#45;2&#45;3&#45;&gt;Tree8&#45;3&#45;leaf -->
<g id="edge40" class="edge">
<title>Tree8&#45;2&#45;3&#45;&gt;Tree8&#45;3&#45;leaf</title>
<path fill="none" stroke="black" d="M4882.02,-185.26C4908.01,-154.89 4944.42,-112.33 4970.1,-82.32"/>
<polygon fill="black" stroke="black" points="4972.87,-84.46 4976.71,-74.59 4967.55,-79.91 4972.87,-84.46"/>
</g>
</g>
</svg>
